<?xml version="1.0" encoding="UTF-8"?>
<svg id="uuid-f9f8eb85-9671-46f3-b266-564b4cb8a518" xmlns="http://www.w3.org/2000/svg" width="1905.2" height="716.08" viewBox="0 0 1905.2 716.08">
  <path d="m205.67,436.45L8,231.94v289.2c0,7.95,3.05,15.58,8.49,21.21l151.7,156.95c5.44,5.62,12.81,8.78,20.5,8.78h279.61l-160.6-166.06-102.04-105.57h.01Z" fill="#578fca" stroke="#fada7a" stroke-miterlimit="10" stroke-width="16"/>
  <path d="m468.3,708.08h172.06c2.29,0,4.55-.12,6.78-.35l-137.27-142.66s-13.8-15.23-26.48-20.98c-2.85-1.29-5.64-2.11-8.21-2.17-14.05-.3-118.63-.04-167.48.1l160.6,166.06h0Z" fill="#3674b5" stroke="#fada7a" stroke-miterlimit="10" stroke-width="16"/>
  <path d="m241.43,164.69c16.35.31,140.36.03,194.29-.11l74.15,76.72v323.77l137.27,142.66c34.17-3.52,60.86-33.35,60.86-69.63V190.07c0-7.95-3.05-15.58-8.49-21.21L552.6,16.87c-5.44-5.62-12.81-8.78-20.5-8.78H75.64c-1.39,0-2.76.06-4.13.14l134.16,138.81s22.47,17.41,35.76,17.66h0Z" fill="#f5f0cd" stroke="#fada7a" stroke-miterlimit="10" stroke-width="16"/>
  <path d="m205.67,436.45V147.03L71.51,8.22c-7.02.44-13.74,1.98-20.02,4.47C26.06,22.75,8,48.22,8,78.06v153.88l197.67,204.51Z" fill="#3674b5" stroke="#fada7a" stroke-miterlimit="10" stroke-width="16"/>
  <g>
    <path d="m1144.14,79.59c-10.53-19.74-24.83-34.78-42.9-45.14-18.07-10.36-38.49-15.54-61.28-15.54s-43.07,5.18-61.19,15.54c-18.13,10.36-32.45,25.4-42.98,45.14-10.53,19.74-15.8,43.59-15.8,71.55s5.27,51.61,15.8,71.29c10.53,19.68,24.86,34.7,42.98,45.05,18.13,10.36,38.52,15.54,61.19,15.54s43.21-5.18,61.28-15.54c18.07-10.36,32.37-25.38,42.9-45.05,10.53-19.68,15.8-43.44,15.8-71.29s-5.27-51.81-15.8-71.55Zm-46,118.07c-5.52,12.72-13.27,22.33-23.22,28.83-9.95,6.5-21.61,9.75-34.96,9.75s-24.86-3.28-34.87-9.84c-10.01-6.56-17.78-16.17-23.3-28.83-5.52-12.66-8.29-28.14-8.29-46.43s2.76-33.98,8.29-46.69c5.52-12.71,13.29-22.35,23.3-28.91,10.01-6.56,21.63-9.84,34.87-9.84s25,3.25,34.96,9.75c9.95,6.5,17.69,16.11,23.22,28.83,5.52,12.72,8.29,28.34,8.29,46.87s-2.76,33.81-8.29,46.52Z" fill="#f5f0cd" stroke="#fada7a" stroke-miterlimit="10" stroke-width="16"/>
    <path d="m1238.31,279.57l21.41-36.25c5.52-9.9,10.44-19.74,14.76-29.52,1.17-2.65,2.35-5.27,3.53-7.86,1.25,2.59,2.49,5.21,3.72,7.86,4.54,9.78,9.64,19.62,15.28,29.52l21.41,36.25h55.58l-62.33-98.37,59.56-94.62h-54.89l-18.13,30.38c-5.75,10.01-10.82,19.91-15.19,29.69-1.22,2.74-2.46,5.44-3.72,8.12-1.27-2.72-2.54-5.45-3.79-8.21-4.43-9.72-9.41-19.59-14.93-29.6l-17.43-30.38h-55.93l58.27,93.94-62.07,99.05h54.89Z" fill="#f5f0cd" stroke="#fada7a" stroke-miterlimit="10" stroke-width="16"/>
    <rect x="1403.33" y="86.58" width="51.79" height="192.99" fill="#f5f0cd" stroke="#fada7a" stroke-miterlimit="10" stroke-width="16"/>
    <path d="m1409.2,53.61c5.52,5.18,12.2,7.77,20.02,7.77s14.53-2.59,20.11-7.77c5.58-5.18,8.37-11.45,8.37-18.82s-2.79-13.64-8.37-18.82c-5.58-5.18-12.29-7.77-20.11-7.77s-14.5,2.59-20.02,7.77c-5.52,5.18-8.29,11.45-8.29,18.82s2.76,13.64,8.29,18.82Z" fill="#f5f0cd" stroke="#fada7a" stroke-miterlimit="10" stroke-width="16"/>
    <path d="m1596.32,277.5c7.25-3.57,13.15-7.97,17.69-13.21,4.54-5.24,7.97-10.44,10.27-15.62h2.59v30.9h50.92V22.37h-51.78v96.67h-1.73c-2.19-5.06-5.52-10.3-10.01-15.71-4.49-5.41-10.36-9.95-17.61-13.64-7.25-3.68-16.34-5.52-27.27-5.52-14.27,0-27.33,3.68-39.19,11.05-11.85,7.37-21.35,18.41-28.48,33.14-7.14,14.73-10.7,33.09-10.7,55.07s3.45,39.5,10.36,54.29c6.91,14.79,16.31,26.01,28.22,33.66,11.91,7.65,25.23,11.48,39.96,11.48,10.59,0,19.51-1.79,26.76-5.35Zm-47.38-64.21c-3.17-8.74-4.75-18.76-4.75-30.04s1.55-21.23,4.66-29.86c3.11-8.63,7.74-15.42,13.9-20.37,6.16-4.95,13.78-7.42,22.87-7.42s16.4,2.39,22.61,7.16c6.21,4.78,10.9,11.45,14.07,20.02,3.16,8.57,4.75,18.73,4.75,30.47s-1.61,21.78-4.83,30.47c-3.22,8.69-7.94,15.45-14.16,20.28-6.21,4.83-13.7,7.25-22.44,7.25s-16.54-2.47-22.7-7.42c-6.16-4.95-10.82-11.79-13.98-20.54Z" fill="#f5f0cd" stroke="#fada7a" stroke-miterlimit="10" stroke-width="16"/>
    <path d="m1897.2,182.04c0-16.57-2.33-30.96-6.99-43.15-4.66-12.2-11.13-22.35-19.42-30.47-8.29-8.11-17.9-14.18-28.83-18.21-10.94-4.03-22.73-6.04-35.39-6.04-18.76,0-35.1,4.2-49.02,12.6-13.93,8.4-24.68,20.08-32.28,35.04-7.6,14.96-11.39,32.4-11.39,52.3s3.82,37.98,11.48,52.82c7.65,14.85,18.61,26.3,32.88,34.35,14.27,8.06,31.25,12.08,50.92,12.08,15.07,0,28.4-2.19,39.96-6.56,11.57-4.37,21.2-10.56,28.91-18.56,7.71-8,13.12-17.29,16.23-27.88l-46.95-8.8c-1.84,4.95-4.52,9.12-8.03,12.52-3.51,3.4-7.74,5.96-12.69,7.68-4.95,1.73-10.47,2.59-16.57,2.59-8.98,0-16.83-1.9-23.56-5.7-6.73-3.8-11.97-9.49-15.71-17.09-3.39-6.88-5.22-15.23-5.54-25.03h131.99v-14.5Zm-112.98-52.65c6.27-4.14,13.9-6.21,22.87-6.21s16.31,2.04,22.35,6.13c6.04,4.09,10.59,9.84,13.64,17.26,2.13,5.2,3.51,11.05,4.15,17.52h-81.8c.59-6.53,2.1-12.49,4.55-17.87,3.22-7.08,7.97-12.69,14.24-16.83Z" fill="#f5f0cd" stroke="#fada7a" stroke-miterlimit="10" stroke-width="16"/>
    <polygon points="1210.95 446.6 1158.3 446.6 1158.3 703.8 1321.94 703.8 1321.94 660.13 1210.95 660.13 1210.95 446.6" fill="#578fca" stroke="#fada7a" stroke-miterlimit="10" stroke-width="8"/>
    <path d="m1492.75,523.59c-7.77-5.18-16.54-9-26.32-11.48-9.78-2.47-19.85-3.71-30.21-3.71-14.39,0-27.3,2.07-38.75,6.21-11.45,4.14-21.03,10.13-28.74,17.95-7.71,7.83-13.23,17.38-16.57,28.65l47.47,7.77c1.49-4.14,3.8-7.88,6.91-11.22,3.11-3.34,7.13-6.01,12.08-8.03,4.95-2.01,10.76-3.02,17.44-3.02s11.94,1.01,16.49,3.02c4.54,2.01,7.97,4.92,10.27,8.72,2.3,3.8,3.45,8.46,3.45,13.98v.86c0,4.14-1.58,7.28-4.75,9.41-3.17,2.13-8.17,3.69-15.02,4.66-6.85.98-15.85,2.04-27.02,3.19-9.55.92-18.67,2.53-27.36,4.83-8.69,2.3-16.46,5.64-23.3,10.01-6.85,4.37-12.26,10.18-16.23,17.44-3.97,7.25-5.96,16.23-5.96,26.93,0,12.77,2.79,23.45,8.37,32.02,5.58,8.57,13.23,15.02,22.96,19.33,9.72,4.32,20.68,6.47,32.88,6.47,9.55,0,17.98-1.32,25.29-3.97,7.31-2.65,13.55-6.24,18.73-10.79,5.18-4.55,9.32-9.81,12.43-15.8h1.73v26.76h49.02v-129.98c0-11.62-2.27-21.6-6.82-29.95-4.55-8.34-10.7-15.1-18.47-20.28Zm-26.15,111.17c0,6.79-1.73,12.95-5.18,18.47-3.45,5.52-8.26,9.9-14.41,13.12-6.16,3.22-13.32,4.83-21.49,4.83-5.64,0-10.65-.86-15.02-2.59-4.37-1.73-7.83-4.29-10.36-7.68-2.53-3.39-3.8-7.57-3.8-12.52,0-5.29,1.32-9.64,3.97-13.03,2.65-3.39,6.39-6.13,11.22-8.2,4.83-2.07,10.41-3.57,16.74-4.49,2.87-.35,6.15-.8,9.84-1.38,3.68-.57,7.42-1.21,11.22-1.9,3.8-.69,7.25-1.49,10.36-2.42,3.11-.92,5.41-1.96,6.9-3.11v20.89Z" fill="#578fca" stroke="#fada7a" stroke-miterlimit="10" stroke-width="8"/>
    <path d="m1709.82,519.44c-11.85-7.36-24.92-11.05-39.18-11.05-10.94,0-20.02,1.84-27.27,5.52-7.25,3.68-13.09,8.23-17.52,13.64-4.43,5.41-7.85,10.65-10.27,15.71h-1.55v-96.67h-51.79v257.2h50.92v-30.9h2.42c2.42,5.18,5.9,10.39,10.44,15.62,4.55,5.24,10.44,9.64,17.69,13.21,7.25,3.57,16.11,5.35,26.58,5.35,14.84,0,28.19-3.82,40.05-11.48,11.85-7.65,21.23-18.87,28.14-33.66,6.9-14.79,10.36-32.88,10.36-54.29s-3.54-40.33-10.62-55.06c-7.08-14.73-16.54-25.78-28.4-33.14Zm-18.73,118.07c-3.17,8.75-7.83,15.6-13.98,20.54-6.16,4.95-13.72,7.42-22.7,7.42s-16.23-2.42-22.44-7.25c-6.21-4.83-10.96-11.59-14.24-20.28-3.28-8.69-4.92-18.84-4.92-30.47s1.61-21.89,4.83-30.47c3.22-8.57,7.94-15.25,14.15-20.02,6.21-4.77,13.75-7.16,22.61-7.16s16.68,2.48,22.79,7.42c6.1,4.95,10.73,11.74,13.9,20.37,3.16,8.63,4.75,18.59,4.75,29.86s-1.58,21.29-4.75,30.04Z" fill="#578fca" stroke="#fada7a" stroke-miterlimit="10" stroke-width="8"/>
  </g>
</svg>