<?xml version="1.0" encoding="utf-8"?>
<!-- Generator: Adobe Illustrator 27.8.1, SVG Export Plug-In . SVG Version: 6.00 Build 0)  -->
<svg version="1.1" id="uuid-f9f8eb85-9671-46f3-b266-564b4cb8a518"
	 xmlns="http://www.w3.org/2000/svg" xmlns:xlink="http://www.w3.org/1999/xlink" x="0px" y="0px" viewBox="0 0 1905.2 716.1"
	 style="enable-background:new 0 0 1905.2 716.1;" xml:space="preserve">
<style type="text/css">
	.st0{fill:#F5B17B;}
	.st1{fill:#4E709D;}
</style>
<g>
	<path class="st0" d="M1144.1,79.6c-10.5-19.7-24.8-34.8-42.9-45.1c-18.1-10.4-38.5-15.5-61.3-15.5s-43.1,5.2-61.2,15.5
		c-18.1,10.4-32.5,25.4-43,45.1s-15.8,43.6-15.8,71.6s5.3,51.6,15.8,71.3s24.9,34.7,43,45c18.1,10.4,38.5,15.5,61.2,15.5
		c22.7,0,43.2-5.2,61.3-15.5c18.1-10.4,32.4-25.4,42.9-45.1s15.8-43.4,15.8-71.3S1154.7,99.3,1144.1,79.6L1144.1,79.6z
		 M1098.1,197.7c-5.5,12.7-13.3,22.3-23.2,28.8s-21.6,9.8-35,9.8s-24.9-3.3-34.9-9.8s-17.8-16.2-23.3-28.8
		c-5.5-12.7-8.3-28.1-8.3-46.4s2.8-34,8.3-46.7S995,82.3,1005,75.7s21.6-9.8,34.9-9.8s25,3.2,35,9.8c9.9,6.5,17.7,16.1,23.2,28.8
		s8.3,28.3,8.3,46.9S1103.7,185,1098.1,197.7L1098.1,197.7z"/>
	<path class="st0" d="M1238.3,279.6l21.4-36.2c5.5-9.9,10.4-19.7,14.8-29.5c1.2-2.6,2.3-5.3,3.5-7.9c1.2,2.6,2.5,5.2,3.7,7.9
		c4.5,9.8,9.6,19.6,15.3,29.5l21.4,36.2h55.6l-62.3-98.4l59.6-94.6h-54.9l-18.1,30.4c-5.8,10-10.8,19.9-15.2,29.7
		c-1.2,2.7-2.5,5.4-3.7,8.1c-1.3-2.7-2.5-5.4-3.8-8.2c-4.4-9.7-9.4-19.6-14.9-29.6l-17.4-30.4h-55.9l58.3,93.9l-62.1,99.1
		L1238.3,279.6L1238.3,279.6z"/>
	<rect x="1403.3" y="86.6" class="st0" width="51.8" height="193"/>
	<path class="st0" d="M1409.2,53.6c5.5,5.2,12.2,7.8,20,7.8s14.5-2.6,20.1-7.8s8.4-11.5,8.4-18.8s-2.8-13.6-8.4-18.8
		s-12.3-7.8-20.1-7.8s-14.5,2.6-20,7.8s-8.3,11.5-8.3,18.8S1403.7,48.4,1409.2,53.6z"/>
	<path class="st0" d="M1596.3,277.5c7.2-3.6,13.2-8,17.7-13.2s8-10.4,10.3-15.6h2.6v30.9h50.9V22.4H1626V119h-1.7
		c-2.2-5.1-5.5-10.3-10-15.7c-4.5-5.4-10.4-9.9-17.6-13.6s-16.3-5.5-27.3-5.5c-14.3,0-27.3,3.7-39.2,11.1
		c-11.8,7.4-21.3,18.4-28.5,33.1c-7.1,14.7-10.7,33.1-10.7,55.1s3.4,39.5,10.4,54.3c6.9,14.8,16.3,26,28.2,33.7
		c11.9,7.6,25.2,11.5,40,11.5C1580.1,282.9,1589.1,281.1,1596.3,277.5L1596.3,277.5z M1548.9,213.3c-3.2-8.7-4.8-18.8-4.8-30
		s1.6-21.2,4.7-29.9s7.7-15.4,13.9-20.4s13.8-7.4,22.9-7.4s16.4,2.4,22.6,7.2s10.9,11.4,14.1,20s4.8,18.7,4.8,30.5
		s-1.6,21.8-4.8,30.5s-7.9,15.4-14.2,20.3c-6.2,4.8-13.7,7.2-22.4,7.2s-16.5-2.5-22.7-7.4C1556.8,228.9,1552.1,222,1548.9,213.3
		L1548.9,213.3z"/>
	<path class="st0" d="M1897.2,182c0-16.6-2.3-31-7-43.2s-11.1-22.3-19.4-30.5c-8.3-8.1-17.9-14.2-28.8-18.2s-22.7-6-35.4-6
		c-18.8,0-35.1,4.2-49,12.6s-24.7,20.1-32.3,35s-11.4,32.4-11.4,52.3s3.8,38,11.5,52.8c7.7,14.9,18.6,26.3,32.9,34.4
		s31.2,12.1,50.9,12.1c15.1,0,28.4-2.2,40-6.6s21.2-10.6,28.9-18.6c7.7-8,13.1-17.3,16.2-27.9l-46.9-8.8c-1.8,4.9-4.5,9.1-8,12.5
		s-7.7,6-12.7,7.7c-4.9,1.7-10.5,2.6-16.6,2.6c-9,0-16.8-1.9-23.6-5.7c-6.7-3.8-12-9.5-15.7-17.1c-3.4-6.9-5.2-15.2-5.5-25h132
		L1897.2,182L1897.2,182z M1784.2,129.4c6.3-4.1,13.9-6.2,22.9-6.2s16.3,2,22.3,6.1s10.6,9.8,13.6,17.3c2.1,5.2,3.5,11.1,4.2,17.5
		h-81.8c0.6-6.5,2.1-12.5,4.6-17.9C1773.2,139.1,1777.9,133.5,1784.2,129.4z"/>
	<polygon class="st1" points="1210.9,446.6 1158.3,446.6 1158.3,703.8 1321.9,703.8 1321.9,660.1 1210.9,660.1 	"/>
	<path class="st1" d="M1492.8,523.6c-7.8-5.2-16.5-9-26.3-11.5s-19.8-3.7-30.2-3.7c-14.4,0-27.3,2.1-38.8,6.2
		c-11.4,4.1-21,10.1-28.7,18c-7.7,7.8-13.2,17.4-16.6,28.7l47.5,7.8c1.5-4.1,3.8-7.9,6.9-11.2s7.1-6,12.1-8c4.9-2,10.8-3,17.4-3
		s11.9,1,16.5,3c4.5,2,8,4.9,10.3,8.7s3.4,8.5,3.4,14v0.9c0,4.1-1.6,7.3-4.8,9.4c-3.2,2.1-8.2,3.7-15,4.7s-15.8,2-27,3.2
		c-9.6,0.9-18.7,2.5-27.4,4.8s-16.5,5.6-23.3,10s-12.3,10.2-16.2,17.4c-4,7.2-6,16.2-6,26.9c0,12.8,2.8,23.5,8.4,32s13.2,15,23,19.3
		c9.7,4.3,20.7,6.5,32.9,6.5c9.6,0,18-1.3,25.3-4s13.6-6.2,18.7-10.8c5.2-4.5,9.3-9.8,12.4-15.8h1.7v26.8h49v-130
		c0-11.6-2.3-21.6-6.8-30C1506.7,535.5,1500.5,528.8,1492.8,523.6L1492.8,523.6z M1466.6,634.8c0,6.8-1.7,13-5.2,18.5
		c-3.4,5.5-8.3,9.9-14.4,13.1c-6.2,3.2-13.3,4.8-21.5,4.8c-5.6,0-10.7-0.9-15-2.6c-4.4-1.7-7.8-4.3-10.4-7.7s-3.8-7.6-3.8-12.5
		c0-5.3,1.3-9.6,4-13s6.4-6.1,11.2-8.2s10.4-3.6,16.7-4.5c2.9-0.3,6.2-0.8,9.8-1.4c3.7-0.6,7.4-1.2,11.2-1.9
		c3.8-0.7,7.2-1.5,10.4-2.4c3.1-0.9,5.4-2,6.9-3.1L1466.6,634.8L1466.6,634.8z"/>
	<path class="st1" d="M1709.8,519.4c-11.8-7.4-24.9-11-39.2-11c-10.9,0-20,1.8-27.3,5.5c-7.2,3.7-13.1,8.2-17.5,13.6
		c-4.4,5.4-7.8,10.7-10.3,15.7h-1.6v-96.7h-51.8v257.2h50.9v-30.9h2.4c2.4,5.2,5.9,10.4,10.4,15.6c4.6,5.2,10.4,9.6,17.7,13.2
		s16.1,5.3,26.6,5.3c14.8,0,28.2-3.8,40.1-11.5c11.8-7.7,21.2-18.9,28.1-33.7s10.4-32.9,10.4-54.3s-3.5-40.3-10.6-55.1
		S1721.7,526.8,1709.8,519.4L1709.8,519.4z M1691.1,637.5c-3.2,8.8-7.8,15.6-14,20.5c-6.2,5-13.7,7.4-22.7,7.4s-16.2-2.4-22.4-7.2
		s-11-11.6-14.2-20.3s-4.9-18.8-4.9-30.5s1.6-21.9,4.8-30.5c3.2-8.6,7.9-15.2,14.2-20c6.2-4.8,13.8-7.2,22.6-7.2s16.7,2.5,22.8,7.4
		c6.1,5,10.7,11.7,13.9,20.4c3.2,8.6,4.8,18.6,4.8,29.9S1694.3,628.8,1691.1,637.5L1691.1,637.5z"/>
</g>
<g>
	<path class="st1" d="M193.1,448.8L8.8,253.7v276c0,7.6,2.8,14.9,7.9,20.2l141.5,149.8c5.1,5.4,11.9,8.4,19.1,8.4h260.7L288.3,549.6
		L193.1,448.8L193.1,448.8z"/>
</g>
<g>
	<path class="st1" d="M462.3,708h160.4c2.1,0,4.2-0.1,6.3-0.3L501,571.6c0,0-12.9-14.5-24.7-20c-2.7-1.2-5.3-2-7.7-2.1
		c-13.1-0.3-110.6,0-156.2,0.1L462.3,708L462.3,708z"/>
</g>
<g>
	<path class="st0" d="M252.7,164.7c16,0.3,134.6-0.1,189.9-0.1l72.5,76.8v323.9L649.3,708c33.4-3.5,59.5-33.4,59.5-69.7V190.1
		c0-8-3-15.6-8.3-21.2L556.9,16.8c-5.3-5.6-12.5-8.8-20-8.8H90.6c-1.4,0-2.7,0.1-4,0.1l131.2,138.9
		C217.7,147.1,239.7,164.5,252.7,164.7L252.7,164.7z"/>
</g>
<g>
	<path class="st1" d="M193.1,424.8V148.6L68,16.2c-6.5,0.4-12.8,1.9-18.7,4.3C25.7,30,8.8,54.3,8.8,82.8v146.9L193.1,424.8z"/>
</g>
</svg>
