<?xml version="1.0" encoding="utf-8"?>
<!-- Generator: Adobe Illustrator 27.8.1, SVG Export Plug-In . SVG Version: 6.00 Build 0)  -->
<svg version="1.1" id="uuid-f9f8eb85-9671-46f3-b266-564b4cb8a518"
	 xmlns="http://www.w3.org/2000/svg" xmlns:xlink="http://www.w3.org/1999/xlink" x="0px" y="0px" viewBox="0 0 716 716.1"
	 style="enable-background:new 0 0 716 716.1;" xml:space="preserve">
<style type="text/css">
	.st0{fill:#4E709D;}
	.st1{fill:#F5B17B;}
</style>
<g>
	<path class="st0" d="M192.3,448.8L8,253.6v276c0,7.6,2.8,14.9,7.9,20.2l141.5,149.8c5.1,5.4,11.9,8.4,19.1,8.4h260.7L287.5,549.6
		L192.3,448.8L192.3,448.8z"/>
</g>
<g>
	<path class="st0" d="M461.4,708h160.4c2.1,0,4.2-0.1,6.3-0.3l-128-136.1c0,0-12.9-14.5-24.7-20c-2.7-1.2-5.3-2-7.7-2.1
		c-13.1-0.3-110.6,0-156.2,0.1L461.4,708L461.4,708z"/>
</g>
<g>
	<path class="st1" d="M251.9,164.7c16,0.3,134.6-0.1,189.9-0.1l72.5,76.8v323.9L648.5,708c33.4-3.5,59.5-33.4,59.5-69.7V190.1
		c0-8-3-15.6-8.3-21.2L556.1,16.8c-5.3-5.6-12.5-8.8-20-8.8H89.8c-1.4,0-2.7,0.1-4,0.1l131.2,138.9
		C216.9,147.1,238.9,164.5,251.9,164.7L251.9,164.7z"/>
</g>
<g>
	<path class="st0" d="M192.3,424.8V148.6L67.2,16.2c-6.5,0.4-12.8,1.9-18.7,4.3C24.8,30,8,54.3,8,82.8v146.9L192.3,424.8z"/>
</g>
</svg>
